<svg width="80" height="80" viewBox="0 0 80 80" fill="none" xmlns="http://www.w3.org/2000/svg">
<g id="&#240;&#159;&#166;&#134; icon &#34;Carrot&#34;">
<path id="Vector" d="M46.5905 24.4706C38.3554 20.4547 28.6982 22.8299 23.1195 29.596L31.7453 38.2216C32.7298 39.2061 32.7298 40.7843 31.7453 41.7532C31.2609 42.2376 30.6202 42.4876 29.9795 42.4876C29.3389 42.4876 28.6982 42.2376 28.2138 41.7532L20.3692 33.9088L0.351694 74.9588C-0.101475 75.8964 -0.132728 77.0371 0.351694 78.0371C1.19553 79.7717 3.3051 80.4905 5.03965 79.6467L25.9167 69.4584L18.2284 61.7703C17.2439 60.8015 17.2439 59.2076 18.2284 58.2388C19.2129 57.27 20.7912 57.27 21.76 58.2388L30.6671 67.1457L46.6062 59.3639C50.3565 57.5356 53.5599 54.4729 55.5289 50.4413C60.2325 40.8 56.2321 29.1741 46.5905 24.4706ZM60.9825 19.0171C64.0297 12.6572 62.4514 5.14101 56.2477 0C48.3876 6.51612 48.0438 16.7981 55.0132 23.7362L56.2633 24.9863C63.2015 31.9555 73.4994 31.6118 80 23.7518C74.8589 17.5482 67.3425 15.97 60.9825 19.0171Z" fill="#FF9900"/>
</g>
</svg>
