<svg width="27" height="29" viewBox="0 0 27 29" fill="none" xmlns="http://www.w3.org/2000/svg">
<path d="M22.115 24.8582C22.1281 25.6048 21.9907 26.1406 21.703 26.4656C21.4153 26.7907 20.9981 26.958 20.4516 26.9675C20.1849 26.9722 19.7313 26.9601 19.0907 26.9312C18.4368 26.9026 17.696 26.8622 16.8683 26.81C16.0406 26.7577 15.1662 26.7063 14.2452 26.6557C13.3242 26.6051 12.4565 26.5535 11.6421 26.501C10.8277 26.4486 10.1136 26.4077 9.49962 26.3784C8.88568 26.3491 8.4654 26.3364 8.23877 26.3403C8.0388 26.3438 7.93695 26.2389 7.93323 26.0256L7.91406 24.9258C7.90104 24.1792 8.03874 23.6634 8.32714 23.3783C8.60199 23.0802 9.01937 22.9262 9.57928 22.9164C9.64594 22.9153 9.70604 22.9209 9.7596 22.9333C9.81293 22.9324 9.87292 22.9313 9.93957 22.9302L19.2897 23.4272L19.2269 19.8278C19.2255 19.7478 19.2509 19.674 19.3031 19.6064C19.3419 19.5391 19.408 19.5046 19.5013 19.503L20.6825 19.5624C21.0829 19.5821 21.4115 19.6897 21.6683 19.8852C21.9115 20.0677 22.0383 20.4589 22.0488 21.0588L22.115 24.8582Z" fill="#FF9900"/>
<path d="M13.36 18.02C13.4933 17.3133 13.6133 16.7 13.72 16.18C13.8267 15.6467 13.92 15.1533 14 14.7C14.08 14.2467 14.1533 13.8 14.22 13.36C14.3 12.9067 14.38 12.4067 14.46 11.86C14.5533 11.3 14.6533 10.6667 14.76 9.96C14.88 9.24 15.02 8.38 15.18 7.38C15.22 7.12667 15.2867 6.96667 15.38 6.9C15.4733 6.82 15.7067 6.78 16.08 6.78C16.2267 6.78 16.4467 6.79333 16.74 6.82C17.0333 6.83333 17.3267 6.89333 17.62 7C17.9133 7.09333 18.1667 7.24667 18.38 7.46C18.6067 7.66 18.72 7.94667 18.72 8.32C18.72 8.53333 18.68 8.86667 18.6 9.32C18.52 9.76 18.4067 10.2733 18.26 10.86C18.1267 11.4333 17.9667 12.06 17.78 12.74C17.6067 13.42 17.4267 14.1067 17.24 14.8C17.0533 15.4933 16.86 16.1667 16.66 16.82C16.4733 17.4733 16.2933 18.0667 16.12 18.6C15.96 19.12 15.8133 19.56 15.68 19.92C15.5467 20.28 15.4533 20.5133 15.4 20.62C15.32 20.7667 15.2067 20.8667 15.06 20.92C14.9133 20.9733 14.7667 21 14.62 21H12.72C12.3733 21 12.08 20.9333 11.84 20.8C11.6133 20.6667 11.42 20.4933 11.26 20.28C11.1133 20.0667 10.9933 19.8267 10.9 19.56C10.82 19.2933 10.7667 19.02 10.74 18.74L9.74 9.76C9.66 10.3467 9.56667 11.0067 9.46 11.74C9.36667 12.4733 9.26 13.22 9.14 13.98C9.03333 14.74 8.92667 15.4867 8.82 16.22C8.71333 16.9533 8.60667 17.6267 8.5 18.24C8.39333 18.84 8.29333 19.3533 8.2 19.78C8.10667 20.2067 8.02667 20.4867 7.96 20.62C7.89333 20.7667 7.78667 20.8667 7.64 20.92C7.49333 20.9733 7.34 21 7.18 21H5.28C4.94667 21 4.66667 20.94 4.44 20.82C4.22667 20.6867 4.04667 20.5133 3.9 20.3C3.75333 20.0867 3.63333 19.8467 3.54 19.58C3.44667 19.3 3.36667 19.02 3.3 18.74C2.75333 16.5667 2.30667 14.78 1.96 13.38C1.62667 11.98 1.36 10.86 1.16 10.02C0.96 9.16667 0.82 8.54667 0.74 8.16C0.673333 7.76 0.64 7.47333 0.64 7.3C0.64 7.07333 0.706667 6.92667 0.84 6.86C0.986667 6.79333 1.28667 6.76 1.74 6.76C2.3 6.76 2.76667 6.8 3.14 6.88C3.52667 6.96 3.84 7.08667 4.08 7.26C4.32 7.42 4.5 7.64 4.62 7.92C4.75333 8.18667 4.84 8.51333 4.88 8.9C4.88 8.95333 4.88667 9.03333 4.9 9.14C4.91333 9.23333 4.92667 9.39333 4.94 9.62C4.96667 9.84667 5 10.16 5.04 10.56C5.09333 10.9467 5.15333 11.4667 5.22 12.12C5.3 12.7733 5.39333 13.5867 5.5 14.56C5.62 15.52 5.76 16.6733 5.92 18.02C6.06667 17.2067 6.18 16.5533 6.26 16.06C6.35333 15.5533 6.43333 15.1133 6.5 14.74C6.56667 14.3533 6.62667 13.9867 6.68 13.64C6.73333 13.28 6.79333 12.84 6.86 12.32C6.94 11.7867 7.02667 11.12 7.12 10.32C7.22667 9.52 7.36 8.48 7.52 7.2C7.53333 7.10667 7.58667 7.03333 7.68 6.98C7.78667 6.92667 7.91333 6.88667 8.06 6.86C8.20667 6.83333 8.36667 6.82 8.54 6.82C8.72667 6.80667 8.9 6.8 9.06 6.8C9.59333 6.8 10.0467 6.83333 10.42 6.9C10.7933 6.95333 11.1 7.05333 11.34 7.2C11.5933 7.34667 11.7933 7.54667 11.94 7.8C12.0867 8.04 12.2067 8.34 12.3 8.7C12.34 8.87333 12.3867 9.11333 12.44 9.42C12.4933 9.71333 12.5533 10.1867 12.62 10.84C12.7 11.4933 12.7933 12.3933 12.9 13.54C13.02 14.6733 13.1733 16.1667 13.36 18.02Z" fill="white"/>
</svg>
