<svg width="25" height="25" viewBox="0 0 25 25" fill="none" xmlns="http://www.w3.org/2000/svg">
<path d="M19.7917 7.29171H16.6667V6.25004C16.6667 5.14497 16.2277 4.08516 15.4463 3.30376C14.6649 2.52236 13.6051 2.08337 12.5 2.08337C11.395 2.08337 10.3351 2.52236 9.55374 3.30376C8.77234 4.08516 8.33335 5.14497 8.33335 6.25004V7.29171H5.20835C4.93209 7.29171 4.66713 7.40145 4.47178 7.59681C4.27643 7.79216 4.16669 8.05711 4.16669 8.33337V19.7917C4.16669 20.6205 4.49593 21.4154 5.08198 22.0014C5.66803 22.5875 6.46289 22.9167 7.29169 22.9167H17.7084C18.5372 22.9167 19.332 22.5875 19.9181 22.0014C20.5041 21.4154 20.8334 20.6205 20.8334 19.7917V8.33337C20.8334 8.05711 20.7236 7.79216 20.5283 7.59681C20.3329 7.40145 20.068 7.29171 19.7917 7.29171ZM10.4167 6.25004C10.4167 5.69751 10.6362 5.1676 11.0269 4.7769C11.4176 4.3862 11.9475 4.16671 12.5 4.16671C13.0526 4.16671 13.5825 4.3862 13.9732 4.7769C14.3639 5.1676 14.5834 5.69751 14.5834 6.25004V7.29171H10.4167V6.25004ZM18.75 19.7917C18.75 20.068 18.6403 20.3329 18.4449 20.5283C18.2496 20.7236 17.9846 20.8334 17.7084 20.8334H7.29169C7.01542 20.8334 6.75047 20.7236 6.55512 20.5283C6.35977 20.3329 6.25002 20.068 6.25002 19.7917V9.37504H8.33335V10.4167C8.33335 10.693 8.4431 10.9579 8.63845 11.1533C8.8338 11.3486 9.09875 11.4584 9.37502 11.4584C9.65129 11.4584 9.91624 11.3486 10.1116 11.1533C10.3069 10.9579 10.4167 10.693 10.4167 10.4167V9.37504H14.5834V10.4167C14.5834 10.693 14.6931 10.9579 14.8885 11.1533C15.0838 11.3486 15.3488 11.4584 15.625 11.4584C15.9013 11.4584 16.1662 11.3486 16.3616 11.1533C16.5569 10.9579 16.6667 10.693 16.6667 10.4167V9.37504H18.75V19.7917Z" fill="#424242"/>
</svg>
