<svg width="113" height="19" viewBox="0 0 113 19" fill="none" xmlns="http://www.w3.org/2000/svg">
<path d="M16.032 14.424C16.192 13.576 16.336 12.84 16.464 12.216C16.592 11.576 16.704 10.984 16.8 10.44C16.896 9.896 16.984 9.36 17.064 8.832C17.16 8.288 17.256 7.688 17.352 7.032C17.464 6.36 17.584 5.6 17.712 4.752C17.856 3.888 18.024 2.856 18.216 1.656C18.264 1.352 18.344 1.16 18.456 1.08C18.568 0.983999 18.848 0.935999 19.296 0.935999C19.472 0.935999 19.736 0.951999 20.088 0.983999C20.44 1 20.792 1.072 21.144 1.2C21.496 1.312 21.8 1.496 22.056 1.752C22.328 1.992 22.464 2.336 22.464 2.784C22.464 3.04 22.416 3.44 22.32 3.984C22.224 4.512 22.088 5.128 21.912 5.832C21.752 6.52 21.56 7.272 21.336 8.088C21.128 8.904 20.912 9.728 20.688 10.56C20.464 11.392 20.232 12.2 19.992 12.984C19.768 13.768 19.552 14.48 19.344 15.12C19.152 15.744 18.976 16.272 18.816 16.704C18.656 17.136 18.544 17.416 18.48 17.544C18.384 17.72 18.248 17.84 18.072 17.904C17.896 17.968 17.72 18 17.544 18H15.264C14.848 18 14.496 17.92 14.208 17.76C13.936 17.6 13.704 17.392 13.512 17.136C13.336 16.88 13.192 16.592 13.08 16.272C12.984 15.952 12.92 15.624 12.888 15.288L11.688 4.512C11.592 5.216 11.48 6.008 11.352 6.888C11.24 7.768 11.112 8.664 10.968 9.576C10.84 10.488 10.712 11.384 10.584 12.264C10.456 13.144 10.328 13.952 10.2 14.688C10.072 15.408 9.952 16.024 9.84 16.536C9.728 17.048 9.632 17.384 9.552 17.544C9.472 17.72 9.344 17.84 9.168 17.904C8.992 17.968 8.808 18 8.616 18H6.336C5.936 18 5.6 17.928 5.328 17.784C5.072 17.624 4.856 17.416 4.68 17.16C4.504 16.904 4.36 16.616 4.248 16.296C4.136 15.96 4.04 15.624 3.96 15.288C3.304 12.68 2.768 10.536 2.352 8.856C1.952 7.176 1.632 5.832 1.392 4.824C1.152 3.8 0.984 3.056 0.888 2.592C0.808 2.112 0.768 1.768 0.768 1.56C0.768 1.288 0.848 1.112 1.008 1.032C1.184 0.952 1.544 0.912 2.088 0.912C2.76 0.912 3.32 0.96 3.768 1.056C4.232 1.152 4.608 1.304 4.896 1.512C5.184 1.704 5.4 1.968 5.544 2.304C5.704 2.624 5.808 3.016 5.856 3.48C5.856 3.544 5.864 3.64 5.88 3.768C5.896 3.88 5.912 4.072 5.928 4.344C5.96 4.616 6 4.992 6.048 5.472C6.112 5.936 6.184 6.56 6.264 7.344C6.36 8.128 6.472 9.104 6.6 10.272C6.744 11.424 6.912 12.808 7.104 14.424C7.28 13.448 7.416 12.664 7.512 12.072C7.624 11.464 7.72 10.936 7.8 10.488C7.88 10.024 7.952 9.584 8.016 9.168C8.08 8.736 8.152 8.208 8.232 7.584C8.328 6.944 8.432 6.144 8.544 5.184C8.672 4.224 8.832 2.976 9.024 1.44C9.04 1.328 9.104 1.24 9.216 1.176C9.344 1.112 9.496 1.064 9.672 1.032C9.848 0.999999 10.04 0.983999 10.248 0.983999C10.472 0.967999 10.68 0.959999 10.872 0.959999C11.512 0.959999 12.056 0.999999 12.504 1.08C12.952 1.144 13.32 1.264 13.608 1.44C13.912 1.616 14.152 1.856 14.328 2.16C14.504 2.448 14.648 2.808 14.76 3.24C14.808 3.448 14.864 3.736 14.928 4.104C14.992 4.456 15.064 5.024 15.144 5.808C15.24 6.592 15.352 7.672 15.48 9.048C15.624 10.408 15.808 12.2 16.032 14.424ZM22.6005 15.048C22.6005 13.608 23.2485 12.48 24.5445 11.664C25.8405 10.848 27.7525 10.408 30.2805 10.344C30.2965 10.168 30.3045 10.024 30.3045 9.912C30.3205 9.784 30.3285 9.632 30.3285 9.456C30.3285 8.944 30.2325 8.536 30.0405 8.232C29.8485 7.928 29.4485 7.776 28.8405 7.776C28.5045 7.776 28.2325 7.824 28.0245 7.92C27.8165 8.016 27.6485 8.152 27.5205 8.328C27.3925 8.488 27.2885 8.688 27.2085 8.928C27.1285 9.168 27.0565 9.432 26.9925 9.72C26.9605 9.864 26.8885 9.96 26.7765 10.008C26.6645 10.04 26.4885 10.056 26.2485 10.056C24.6165 10.056 23.8005 9.44 23.8005 8.208C23.8005 7.712 23.9125 7.24 24.1365 6.792C24.3765 6.344 24.7205 5.96 25.1685 5.64C25.6325 5.304 26.2085 5.04 26.8965 4.848C27.5845 4.656 28.3845 4.56 29.2965 4.56C31.0725 4.56 32.3605 4.928 33.1605 5.664C33.9605 6.4 34.3605 7.44 34.3605 8.784C34.3605 8.96 34.3365 9.28 34.2885 9.744C34.2565 10.192 34.2085 10.672 34.1445 11.184C34.0965 11.68 34.0485 12.152 34.0005 12.6C33.9685 13.048 33.9525 13.36 33.9525 13.536C33.9525 13.936 34.0245 14.224 34.1685 14.4C34.3125 14.56 34.4725 14.672 34.6485 14.736C34.8405 14.8 35.0085 14.848 35.1525 14.88C35.2965 14.912 35.3685 14.992 35.3685 15.12C35.3685 15.472 35.3205 15.832 35.2245 16.2C35.1285 16.568 34.9685 16.904 34.7445 17.208C34.5365 17.512 34.2405 17.76 33.8565 17.952C33.4885 18.144 33.0325 18.24 32.4885 18.24C31.7205 18.24 31.1445 18.056 30.7605 17.688C30.3765 17.32 30.1205 16.808 29.9925 16.152C29.6085 16.712 29.1045 17.2 28.4805 17.616C27.8725 18.032 27.0725 18.24 26.0805 18.24C25.6005 18.24 25.1445 18.184 24.7125 18.072C24.2965 17.96 23.9285 17.776 23.6085 17.52C23.3045 17.264 23.0565 16.936 22.8645 16.536C22.6885 16.12 22.6005 15.624 22.6005 15.048ZM30.0645 12.312C29.6485 12.312 29.2405 12.344 28.8405 12.408C28.4405 12.472 28.0805 12.576 27.7605 12.72C27.4565 12.848 27.2085 13.024 27.0165 13.248C26.8245 13.472 26.7285 13.744 26.7285 14.064C26.7285 14.432 26.8405 14.688 27.0645 14.832C27.3045 14.976 27.5605 15.048 27.8325 15.048C28.0885 15.048 28.3445 14.992 28.6005 14.88C28.8565 14.768 29.0805 14.6 29.2725 14.376C29.4805 14.136 29.6565 13.848 29.8005 13.512C29.9445 13.176 30.0325 12.776 30.0645 12.312ZM45.0519 15.888C45.0519 15.536 45.0759 15.08 45.1239 14.52C45.1879 13.944 45.2439 13.344 45.2919 12.72C45.3559 12.08 45.4119 11.464 45.4599 10.872C45.5239 10.28 45.5559 9.784 45.5559 9.384C45.5559 8.968 45.4519 8.6 45.2439 8.28C45.0519 7.944 44.6679 7.776 44.0919 7.776C43.5319 7.776 43.0679 7.912 42.6999 8.184C42.3319 8.456 42.0199 8.952 41.7639 9.672C41.5239 10.392 41.3239 11.384 41.1639 12.648C41.0039 13.912 40.8519 15.536 40.7079 17.52C40.6919 17.712 40.6519 17.84 40.5879 17.904C40.5239 17.968 40.3879 18 40.1799 18H39.3159C38.8199 18 38.4119 17.952 38.0919 17.856C37.7879 17.744 37.5399 17.592 37.3479 17.4C37.1719 17.208 37.0439 16.976 36.9639 16.704C36.8999 16.416 36.8679 16.088 36.8679 15.72C36.8679 15.48 36.8759 15.144 36.8919 14.712C36.9239 14.264 36.9719 13.656 37.0359 12.888C37.0999 12.104 37.1719 11.12 37.2519 9.936C37.3479 8.736 37.4599 7.256 37.5879 5.496C37.6039 5.144 37.6439 4.936 37.7079 4.872C37.7559 4.824 37.8839 4.8 38.0919 4.8H39.0279C39.5079 4.8 39.8999 4.856 40.2039 4.968C40.5239 5.08 40.7799 5.232 40.9719 5.424C41.1639 5.6 41.2999 5.816 41.3799 6.072C41.4599 6.312 41.5079 6.56 41.5239 6.816C42.0199 5.968 42.5879 5.384 43.2279 5.064C43.8679 4.728 44.6679 4.56 45.6279 4.56C46.2999 4.56 46.8839 4.632 47.3799 4.776C47.8759 4.92 48.2839 5.168 48.6039 5.52C48.9399 5.856 49.1879 6.304 49.3479 6.864C49.5079 7.408 49.5879 8.088 49.5879 8.904C49.5879 9.16 49.5719 9.528 49.5399 10.008C49.5079 10.488 49.4679 11.016 49.4199 11.592C49.3719 12.152 49.3159 12.744 49.2519 13.368C49.2039 13.976 49.1559 14.544 49.1079 15.072C49.0599 15.6 49.0199 16.064 48.9879 16.464C48.9559 16.864 48.9399 17.128 48.9399 17.256C48.9399 17.608 48.8999 17.824 48.8199 17.904C48.7399 17.968 48.5639 18 48.2919 18H47.5239C47.0119 18 46.5959 17.952 46.2759 17.856C45.9559 17.76 45.7079 17.624 45.5319 17.448C45.3559 17.272 45.2279 17.056 45.1479 16.8C45.0839 16.528 45.0519 16.224 45.0519 15.888ZM56.9113 8.04C56.8633 8.648 56.8073 9.248 56.7433 9.84C56.6953 10.432 56.6473 10.992 56.5993 11.52C56.5513 12.048 56.5113 12.52 56.4793 12.936C56.4633 13.352 56.4553 13.672 56.4553 13.896C56.4553 14.312 56.5033 14.592 56.5993 14.736C56.6953 14.864 56.8553 14.928 57.0793 14.928C57.2553 14.928 57.4073 14.896 57.5353 14.832C57.6633 14.768 57.7833 14.696 57.8953 14.616C58.0073 14.536 58.1033 14.464 58.1833 14.4C58.2793 14.336 58.3833 14.304 58.4953 14.304C58.6073 14.304 58.7113 14.368 58.8073 14.496C58.9033 14.624 58.9513 14.92 58.9513 15.384C58.9513 16.264 58.7113 16.96 58.2313 17.472C57.7513 17.984 56.9273 18.24 55.7593 18.24C54.6073 18.24 53.7513 17.976 53.1913 17.448C52.6473 16.904 52.3753 16.08 52.3753 14.976C52.3753 14.736 52.3833 14.456 52.3993 14.136C52.4313 13.8 52.4713 13.368 52.5193 12.84C52.5673 12.312 52.6233 11.664 52.6873 10.896C52.7673 10.128 52.8473 9.176 52.9273 8.04H51.6553C51.5273 8.04 51.4473 8.016 51.4153 7.968C51.3993 7.904 51.3913 7.816 51.3913 7.704L51.4633 6.48C51.4793 6.272 51.5033 6.072 51.5353 5.88C51.5833 5.672 51.6633 5.488 51.7753 5.328C51.9033 5.168 52.0793 5.04 52.3033 4.944C52.5273 4.848 52.8233 4.8 53.1913 4.8C53.3033 4.512 53.4313 4.168 53.5753 3.768C53.7193 3.368 53.8633 2.984 54.0073 2.616C54.1513 2.232 54.2873 1.912 54.4153 1.656C54.5593 1.4 54.6873 1.272 54.7993 1.272H55.4953C56.1673 1.272 56.6313 1.48 56.8873 1.896C57.1433 2.312 57.2713 2.808 57.2713 3.384C57.2713 3.704 57.2473 4.176 57.1993 4.8H59.7193C59.9753 4.8 60.1033 4.912 60.1033 5.136L60.0073 6.432C59.9753 6.912 59.8393 7.304 59.5993 7.608C59.3753 7.896 58.9033 8.04 58.1833 8.04H56.9113ZM64.0973 18C63.2013 18 62.5613 17.824 62.1773 17.472C61.7933 17.12 61.6013 16.616 61.6013 15.96C61.6013 15.64 61.6253 15.096 61.6733 14.328C61.7213 13.544 61.7853 12.656 61.8653 11.664C61.9453 10.672 62.0253 9.624 62.1053 8.52C62.1853 7.416 62.2653 6.376 62.3453 5.4C62.4253 4.424 62.4893 3.568 62.5373 2.832C62.5853 2.096 62.6093 1.592 62.6093 1.32C62.6093 1.08 62.7373 0.959999 62.9933 0.959999H64.3133C65.2093 0.959999 65.8253 1.136 66.1613 1.488C66.5133 1.824 66.6893 2.328 66.6893 3C66.6893 3.08 66.6813 3.152 66.6653 3.216C66.6653 3.28 66.6653 3.352 66.6653 3.432L65.8733 14.64H70.1933C70.2893 14.64 70.3773 14.672 70.4573 14.736C70.5373 14.784 70.5773 14.864 70.5773 14.976L70.4813 16.392C70.4493 16.872 70.3133 17.264 70.0733 17.568C69.8493 17.856 69.3773 18 68.6573 18H64.0973ZM77.4019 18.24C76.2979 18.24 75.3779 18.088 74.6419 17.784C73.9219 17.464 73.3459 17.032 72.9139 16.488C72.4819 15.944 72.1779 15.312 72.0019 14.592C71.8259 13.856 71.7379 13.072 71.7379 12.24C71.7379 11.28 71.8499 10.344 72.0739 9.432C72.3139 8.504 72.7139 7.68 73.2739 6.96C73.8339 6.24 74.5699 5.664 75.4819 5.232C76.4099 4.784 77.5619 4.56 78.9379 4.56C80.9539 4.56 82.3939 5.056 83.2579 6.048C84.1379 7.024 84.5779 8.4 84.5779 10.176C84.5779 10.672 84.5379 11.224 84.4579 11.832C84.3939 12.424 84.2579 13.016 84.0499 13.608C83.8579 14.2 83.5859 14.776 83.2339 15.336C82.8979 15.896 82.4659 16.392 81.9379 16.824C81.4099 17.256 80.7699 17.6 80.0179 17.856C79.2819 18.112 78.4099 18.24 77.4019 18.24ZM78.5299 7.752C77.9219 7.752 77.4339 7.912 77.0659 8.232C76.7139 8.536 76.4419 8.912 76.2499 9.36C76.0739 9.792 75.9539 10.256 75.8899 10.752C75.8419 11.232 75.8179 11.64 75.8179 11.976C75.8179 13.032 75.9859 13.808 76.3219 14.304C76.6579 14.8 77.1379 15.048 77.7619 15.048C78.3219 15.048 78.7779 14.872 79.1299 14.52C79.4979 14.168 79.7779 13.744 79.9699 13.248C80.1779 12.752 80.3139 12.232 80.3779 11.688C80.4579 11.144 80.4979 10.688 80.4979 10.32C80.4979 9.52 80.3459 8.896 80.0419 8.448C79.7539 7.984 79.2499 7.752 78.5299 7.752ZM85.6736 15.048C85.6736 13.608 86.3216 12.48 87.6176 11.664C88.9136 10.848 90.8256 10.408 93.3536 10.344C93.3696 10.168 93.3776 10.024 93.3776 9.912C93.3936 9.784 93.4016 9.632 93.4016 9.456C93.4016 8.944 93.3056 8.536 93.1136 8.232C92.9216 7.928 92.5216 7.776 91.9136 7.776C91.5776 7.776 91.3056 7.824 91.0976 7.92C90.8896 8.016 90.7216 8.152 90.5936 8.328C90.4656 8.488 90.3616 8.688 90.2816 8.928C90.2016 9.168 90.1296 9.432 90.0656 9.72C90.0336 9.864 89.9616 9.96 89.8496 10.008C89.7376 10.04 89.5616 10.056 89.3216 10.056C87.6896 10.056 86.8736 9.44 86.8736 8.208C86.8736 7.712 86.9856 7.24 87.2096 6.792C87.4496 6.344 87.7936 5.96 88.2416 5.64C88.7056 5.304 89.2816 5.04 89.9696 4.848C90.6576 4.656 91.4576 4.56 92.3696 4.56C94.1456 4.56 95.4336 4.928 96.2336 5.664C97.0336 6.4 97.4336 7.44 97.4336 8.784C97.4336 8.96 97.4096 9.28 97.3616 9.744C97.3296 10.192 97.2816 10.672 97.2176 11.184C97.1696 11.68 97.1216 12.152 97.0736 12.6C97.0416 13.048 97.0256 13.36 97.0256 13.536C97.0256 13.936 97.0976 14.224 97.2416 14.4C97.3856 14.56 97.5456 14.672 97.7216 14.736C97.9136 14.8 98.0816 14.848 98.2256 14.88C98.3696 14.912 98.4416 14.992 98.4416 15.12C98.4416 15.472 98.3936 15.832 98.2976 16.2C98.2016 16.568 98.0416 16.904 97.8176 17.208C97.6096 17.512 97.3136 17.76 96.9296 17.952C96.5616 18.144 96.1056 18.24 95.5616 18.24C94.7936 18.24 94.2176 18.056 93.8336 17.688C93.4496 17.32 93.1936 16.808 93.0656 16.152C92.6816 16.712 92.1776 17.2 91.5536 17.616C90.9456 18.032 90.1456 18.24 89.1536 18.24C88.6736 18.24 88.2176 18.184 87.7856 18.072C87.3696 17.96 87.0016 17.776 86.6816 17.52C86.3776 17.264 86.1296 16.936 85.9376 16.536C85.7616 16.12 85.6736 15.624 85.6736 15.048ZM93.1376 12.312C92.7216 12.312 92.3136 12.344 91.9136 12.408C91.5136 12.472 91.1536 12.576 90.8336 12.72C90.5296 12.848 90.2816 13.024 90.0896 13.248C89.8976 13.472 89.8016 13.744 89.8016 14.064C89.8016 14.432 89.9136 14.688 90.1376 14.832C90.3776 14.976 90.6336 15.048 90.9056 15.048C91.1616 15.048 91.4176 14.992 91.6736 14.88C91.9296 14.768 92.1536 14.6 92.3456 14.376C92.5536 14.136 92.7296 13.848 92.8736 13.512C93.0176 13.176 93.1056 12.776 93.1376 12.312ZM104.333 18.24C103.709 18.24 103.109 18.128 102.533 17.904C101.973 17.68 101.477 17.328 101.045 16.848C100.629 16.368 100.293 15.76 100.037 15.024C99.7971 14.288 99.6771 13.4 99.6771 12.36C99.6771 11.896 99.7091 11.384 99.7731 10.824C99.8371 10.248 99.9491 9.672 100.109 9.096C100.269 8.52 100.493 7.96 100.781 7.416C101.069 6.872 101.429 6.392 101.861 5.976C102.309 5.544 102.837 5.2 103.445 4.944C104.069 4.688 104.797 4.56 105.629 4.56C106.429 4.56 107.069 4.704 107.549 4.992C108.045 5.264 108.357 5.744 108.485 6.432C108.517 5.808 108.549 5.264 108.581 4.8C108.613 4.336 108.637 3.904 108.653 3.504C108.685 3.104 108.717 2.704 108.749 2.304C108.781 1.904 108.813 1.448 108.845 0.935999C108.861 0.583999 108.901 0.375999 108.965 0.311999C108.997 0.279999 109.037 0.263999 109.085 0.263999C109.133 0.248 109.221 0.24 109.349 0.24H110.285C110.765 0.24 111.165 0.296 111.485 0.407999C111.805 0.52 112.061 0.671999 112.253 0.863999C112.445 1.056 112.581 1.28 112.661 1.536C112.741 1.776 112.781 2.032 112.781 2.304C112.781 2.304 112.765 2.504 112.733 2.904C112.701 3.304 112.661 3.84 112.613 4.512C112.565 5.168 112.509 5.92 112.445 6.768C112.381 7.616 112.317 8.496 112.253 9.408C112.189 10.304 112.125 11.2 112.061 12.096C111.997 12.976 111.933 13.792 111.869 14.544C111.805 15.28 111.749 15.92 111.701 16.464C111.669 16.992 111.645 17.344 111.629 17.52C111.597 17.712 111.557 17.84 111.509 17.904C111.461 17.968 111.325 18 111.101 18H110.237C109.901 18 109.581 17.976 109.277 17.928C108.989 17.864 108.733 17.768 108.509 17.64C108.301 17.496 108.133 17.312 108.005 17.088C107.893 16.848 107.837 16.544 107.837 16.176C107.549 16.784 107.109 17.28 106.517 17.664C105.941 18.048 105.213 18.24 104.333 18.24ZM106.421 7.752C105.605 7.752 104.997 8.112 104.597 8.832C104.213 9.536 104.021 10.488 104.021 11.688C104.021 12.104 104.045 12.512 104.093 12.912C104.157 13.312 104.261 13.672 104.405 13.992C104.549 14.312 104.741 14.568 104.981 14.76C105.237 14.952 105.557 15.048 105.941 15.048C106.629 15.048 107.205 14.712 107.669 14.04C108.133 13.368 108.365 12.312 108.365 10.872C108.365 10.472 108.341 10.088 108.293 9.72C108.245 9.336 108.149 9 108.005 8.712C107.861 8.424 107.661 8.192 107.405 8.016C107.149 7.84 106.821 7.752 106.421 7.752Z" fill="#FF9900"/>
</svg>
