<svg width="21" height="21" viewBox="0 0 21 21" fill="none" xmlns="http://www.w3.org/2000/svg">
<path d="M21 19.1827L14.7363 12.918C15.7458 11.5309 16.2888 9.8591 16.2871 8.14356C16.2871 3.65329 12.6338 0 8.14356 0C3.65329 0 0 3.65329 0 8.14356C0 12.6338 3.65329 16.2871 8.14356 16.2871C9.8591 16.2888 11.5309 15.7458 12.918 14.7363L19.1827 21L21 19.1827ZM8.14356 13.7151C7.04146 13.7152 5.96409 13.3885 5.04769 12.7763C4.13129 12.164 3.41703 11.2938 2.99523 10.2756C2.57343 9.25744 2.46304 8.13704 2.67803 7.05612C2.89301 5.9752 3.42371 4.9823 4.20301 4.20301C4.9823 3.42371 5.9752 2.89301 7.05612 2.67803C8.13704 2.46304 9.25744 2.57343 10.2756 2.99523C11.2938 3.41703 12.164 4.13129 12.7763 5.04769C13.3885 5.96409 13.7152 7.04146 13.7151 8.14356C13.7134 9.62069 13.1258 11.0368 12.0813 12.0813C11.0368 13.1258 9.62069 13.7134 8.14356 13.7151Z" fill="#424242"/>
</svg>
