<svg width="226" height="301" viewBox="0 0 226 301" fill="none" xmlns="http://www.w3.org/2000/svg">
<path d="M215.894 28.1601H218.241C222.129 28.1601 225.281 25.0079 225.281 21.1201V7.04003C225.281 3.15217 222.129 0 218.241 0H7.04003C3.15217 0 0 3.15217 0 7.04003V21.1201C0 25.0079 3.15217 28.1601 7.04003 28.1601H9.3867C9.3867 75.4245 28.2704 125.434 66.3992 150.187C28.1009 175.051 9.3867 225.222 9.3867 272.214H7.04003C3.15217 272.214 0 275.367 0 279.254V293.335C0 297.222 3.15217 300.375 7.04003 300.375H218.241C222.129 300.375 225.281 297.222 225.281 293.335V279.254C225.281 275.367 222.129 272.214 218.241 272.214H215.894C215.894 224.95 197.011 174.941 158.882 150.187C197.181 125.324 215.894 75.1523 215.894 28.1601ZM37.5468 28.1601H187.734C187.734 87.7774 154.114 136.107 112.64 136.107C71.1671 136.107 37.5468 87.778 37.5468 28.1601ZM187.734 272.214H37.5468C37.5468 212.597 71.1676 164.267 112.64 164.267C154.113 164.267 187.734 212.597 187.734 272.214Z" fill="#FF9900"/>
</svg>
